# xmcd CD database file
#
# Track frame offsets:
#	150
#	24055
#	39068
#	53815
#	77714
#	94211
#	111071
#	138949
#	155151
#	167739
#	193258
#	211622
#	232604
#	243667
#	259754
#
# Disc length: 3581 seconds
#
# Revision: 0
# Processed by: cddbd v1.5.1PL0 Copyright (c) Steve Scherf et al.
# Submitted via: Feurio! 1.63 - http://www.feurio.com
#
DISCID=b60dfb0f
DTITLE=Swing Company - red swing box - live
DYEAR=1900
DGENRE=
TTITLE0=Sweet Georgia Brown
TTITLE1=I've got you under my skin
TTITLE2=Muskat Ramble
TTITLE3=Exactly like you
TTITLE4=It don't mean a thing
TTITLE5=Amazing grace
TTITLE6=Everything but you
TTITLE7=The lady is a tramp
TTITLE8=Nr. 2000
TTITLE9=Midnight in Moscow
TTITLE10=Tiger Rag
TTITLE11=Comes love
TTITLE12=Swinging the blues
TTITLE13=Fidgety feet
TTITLE14=funky Saints
EXTD=
EXTT0=
EXTT1=
EXTT2=
EXTT3=
EXTT4=
EXTT5=
EXTT6=
EXTT7=
EXTT8=
EXTT9=
EXTT10=
EXTT11=
EXTT12=
EXTT13=
EXTT14=
PLAYORDER=
